<svg xmlns="http://www.w3.org/2000/svg" height="24" viewBox="0 0 24 24" width="24"><defs>
  <g id="icon-play">
    <path d="M8 5v14l11-7z"/>
    <path d="M0 0h24v24H0z" fill="none"/>
  </g>
  <g id="icon-pause">
    <path d="M6 19h4V5H6v14zm8-14v14h4V5h-4z"/>
    <path d="M0 0h24v24H0z" fill="none"/>
  </g>
  <g id="icon-build">
    <path clip-rule="evenodd" d="M0 0h24v24H0z" fill="none"/>
    <path d="M22.7 19l-9.1-9.1c.9-2.3.4-5-1.5-6.9-2-2-5-2.4-7.4-1.3L9 6 6 9 1.6 4.7C.4 7.1.9 10.1 2.9 12.1c1.9 1.9 4.6 2.4 6.9 1.5l9.1 9.1c.4.4 1 .4 1.4 0l2.3-2.3c.5-.4.5-1.1.1-1.4z"/>
  </g>
  <g id="icon-library">
    <path d="M0 0h24v24H0z" fill="none"/>
    <path d="M4 6H2v14c0 1.1.9 2 2 2h14v-2H4V6zm16-4H8c-1.1 0-2 .9-2 2v12c0 1.1.9 2 2 2h12c1.1 0 2-.9 2-2V4c0-1.1-.9-2-2-2zm-8 12.5v-9l6 4.5-6 4.5z"/>
  </g>
  <g id="icon-forbidden">
    <path d="M0 0h24v24H0z" fill="none"/>
    <path d="M14.59 8L12 10.59 9.41 8 8 9.41 10.59 12 8 14.59 9.41 16 12 13.41 14.59 16 16 14.59 13.41 12 16 9.41 14.59 8zM12 2C6.47 2 2 6.47 2 12s4.47 10 10 10 10-4.47 10-10S17.53 2 12 2zm0 18c-4.41 0-8-3.59-8-8s3.59-8 8-8 8 3.59 8 8-3.59 8-8 8z"/>
  </g>
  <g id="icon-refresh">
      <path d="M12 6v3l4-4-4-4v3c-4.42 0-8 3.58-8 8 0 1.57.46 3.03 1.24 4.26L6.7 14.8c-.45-.83-.7-1.79-.7-2.8 0-3.31 2.69-6 6-6zm6.76 1.74L17.3 9.2c.44.84.7 1.79.7 2.8 0 3.31-2.69 6-6 6v-3l-4 4 4 4v-3c4.42 0 8-3.58 8-8 0-1.57-.46-3.03-1.24-4.26z"/>
      <path d="M0 0h24v24H0z" fill="none"/>
  </g>
  <g id="icon-back">
    <path xmlns="http://www.w3.org/2000/svg" d="M0 0h24v24H0z" fill="none"/>
    <path xmlns="http://www.w3.org/2000/svg" d="M20 11H7.83l5.59-5.59L12 4l-8 8 8 8 1.41-1.41L7.83 13H20v-2z"/>
  </g>
  <g id="icon-menu">
    <path xmlns="http://www.w3.org/2000/svg" d="M0 0h24v24H0z" fill="none"/>
    <path xmlns="http://www.w3.org/2000/svg" d="M3 18h18v-2H3v2zm0-5h18v-2H3v2zm0-7v2h18V6H3z"/>
  </g>
  <g id="icon-delete">
    <path d="M0 0h24v24H0V0z" fill="none"/>
    <path d="M6 19c0 1.1.9 2 2 2h8c1.1 0 2-.9 2-2V7H6v12zm2.46-7.12l1.41-1.41L12 12.59l2.12-2.12 1.41 1.41L13.41 14l2.12 2.12-1.41 1.41L12 15.41l-2.12 2.12-1.41-1.41L10.59 14l-2.13-2.12zM15.5 4l-1-1h-5l-1 1H5v2h14V4z"/>
  </g>
  <g id="icon-filter">
    <path d="M0 0h24v24H0z" fill="none"/>
    <path d="M10 18h4v-2h-4v2zM3 6v2h18V6H3zm3 7h12v-2H6v2z"/>
  </g>
  <g id="icon-check">
    <path d="M0 0h24v24H0z" fill="none"/>
    <path d="M9 16.17L4.83 12l-1.42 1.41L9 19 21 7l-1.41-1.41z"/>
  </g>
  <g id="icon-close">
    <path d="M0 0h24v24H0z" fill="none"/>
    <path d="M19 6.41L17.59 5 12 10.59 6.41 5 5 6.41 10.59 12 5 17.59 6.41 19 12 13.41 17.59 19 19 17.59 13.41 12z"/>
  </g>
  <g id="icon-upload">
    <path d="M0 0h24v24H0z" fill="none"/>
    <path d="M4 6H2v14c0 1.1.9 2 2 2h14v-2H4V6zm16-4H8c-1.1 0-2 .9-2 2v12c0 1.1.9 2 2 2h12c1.1 0 2-.9 2-2V4c0-1.1-.9-2-2-2zm-1 9h-4v4h-2v-4H9V9h4V5h2v4h4v2z"/>
  </g>
  <g id="icon-uploadbox">
    <path d="M0 0h24v24H0z" fill="none"/>
    <path d="M6 16v-2h-2v4h16v-4h-2v2H6z"/>
    <path id="fleche" d="M19 8h-4v7h-6v-7h-4l7 -7 7 7z"/>
      <!-- <animate attributeName="d" dur='1s' values="M19 6h-4v7h-6v-7h-4l7 -7 7 7z" repeatCount="indefinite"/> -->
    <!-- </path> -->
    <!-- <path d="M16 13h-3V3h-2v10H8l4 4 4-4zM4 19v2h16v-2H4z"/> -->
  </g>
  <g id="icon-toggle-off">
    <path fill="none" d="M0 0h24v24H0z"/>
    <path d="M17 7H7c-2.76 0-5 2.24-5 5s2.24 5 5 5h10c2.76 0 5-2.24 5-5s-2.24-5-5-5zM7 15c-1.66 0-3-1.34-3-3s1.34-3 3-3 3 1.34 3 3-1.34 3-3 3z"/>
  </g>
  <g id="icon-toggle-on">
    <path fill="none" d="M0 0h24v24H0z"/>
    <path d="M17 7H7c-2.76 0-5 2.24-5 5s2.24 5 5 5h10c2.76 0 5-2.24 5-5s-2.24-5-5-5zm0 8c-1.66 0-3-1.34-3-3s1.34-3 3-3 3 1.34 3 3-1.34 3-3 3z"/>
  </g>
</defs></svg>
